<svg xmlns="http://www.w3.org/2000/svg" xmlns:xlink="http://www.w3.org/1999/xlink" viewBox="0 0 338.42 70.34"><defs><style>.cls-1{fill:none;}.cls-2{fill:#dc343b;}.cls-3{fill:#d95c60;}.cls-4{fill:url(#linear-gradient);}.cls-5{fill:url(#linear-gradient-2);}.cls-6{fill:url(#linear-gradient-3);}.cls-7{fill:url(#linear-gradient-4);}.cls-8{fill:url(#linear-gradient-5);}.cls-9{fill:url(#linear-gradient-6);}.cls-10{fill:#76797a;}.cls-11{fill:#999c9d;}.cls-12{clip-path:url(#clip-path);}.cls-13{fill:#999a9b;}</style><linearGradient id="linear-gradient" x1="4.33" y1="4.21" x2="4.33" y2="55.84" gradientUnits="userSpaceOnUse"><stop offset="0.15" stop-color="#dd343b"/><stop offset="1" stop-color="#bd343c"/></linearGradient><linearGradient id="linear-gradient-2" x1="45.03" y1="4.21" x2="45.03" y2="55.84" xlink:href="#linear-gradient"/><linearGradient id="linear-gradient-3" x1="173.01" y1="57.1" x2="173.01" y2="4.21" gradientUnits="userSpaceOnUse"><stop offset="0" stop-color="#393c3e"/><stop offset="1" stop-color="#515457"/></linearGradient><linearGradient id="linear-gradient-4" x1="225.5" y1="55.84" x2="225.5" y2="4.21" xlink:href="#linear-gradient-3"/><linearGradient id="linear-gradient-5" x1="271.59" y1="57.1" x2="271.59" y2="2.95" xlink:href="#linear-gradient-3"/><linearGradient id="linear-gradient-6" x1="318.07" y1="55.84" x2="318.07" y2="4.21" xlink:href="#linear-gradient-3"/><clipPath id="clip-path"><circle class="cls-1" cx="109.05" cy="29.23" r="17.79" transform="translate(11.27 85.67) rotate(-45)"/></clipPath></defs><title>Asset 1</title><g id="Layer_2" data-name="Layer 2"><g id="Layer_1-2" data-name="Layer 1"><path class="cls-2" d="M147.83,64l-1.76-1.76-9.76-9.76L131,57.78,142.57,69.3a2.83,2.83,0,0,0,4.38,0l.88-.88A2.83,2.83,0,0,0,147.83,64Z"/><path class="cls-3" d="M147.39,68.85l.45-.44a2.83,2.83,0,0,0,0-4.38l-1.76-1.76-9.76-9.76-2.63,2.63Z"/><path class="cls-4" d="M8.27,4.21H.38A.39.39,0,0,0,0,4.6V55.45a.38.38,0,0,0,.38.38H8.27a.38.38,0,0,0,.38-.38V4.6A.39.39,0,0,0,8.27,4.21Z"/><path class="cls-5" d="M67.17,4.21h-8a.39.39,0,0,0-.38.39V42.83L33,4.38a.39.39,0,0,0-.32-.17h-9.8a.39.39,0,0,0-.38.39V55.45a.38.38,0,0,0,.38.38h8a.38.38,0,0,0,.38-.38V17.19L57.33,55.67a.38.38,0,0,0,.32.16h9.52a.38.38,0,0,0,.38-.38V4.6A.39.39,0,0,0,67.17,4.21Z"/><path class="cls-6" d="M192.84,4.21h-8a.39.39,0,0,0-.38.39v31a18.85,18.85,0,0,1-.59,4.54,13.08,13.08,0,0,1-2,4.26,10.54,10.54,0,0,1-3.51,3.13,12.67,12.67,0,0,1-10.77,0,10.48,10.48,0,0,1-3.51-3.13,13,13,0,0,1-2-4.25,18.7,18.7,0,0,1-.6-4.54V4.6a.39.39,0,0,0-.38-.39h-8a.39.39,0,0,0-.39.39V36.68A21.4,21.4,0,0,0,154.35,45a19.89,19.89,0,0,0,4.28,6.46,19,19,0,0,0,6.44,4.22,22.18,22.18,0,0,0,15.89,0,19.1,19.1,0,0,0,6.43-4.22A19.78,19.78,0,0,0,191.67,45a21.35,21.35,0,0,0,1.55-8.27V4.6A.39.39,0,0,0,192.84,4.21Z"/><path class="cls-7" d="M242.77,47.49H216.61V33.64h23.15a.38.38,0,0,0,.38-.38V25.68a.38.38,0,0,0-.38-.38H216.61V12.56h24.9a.38.38,0,0,0,.38-.39V4.6a.39.39,0,0,0-.38-.39H208.23a.39.39,0,0,0-.39.39V55.45a.38.38,0,0,0,.39.38h34.54a.39.39,0,0,0,.39-.38V47.87A.39.39,0,0,0,242.77,47.49Z"/><path class="cls-8" d="M282.39,28.75a26.17,26.17,0,0,0-6.11-2.44,53.34,53.34,0,0,1-5.77-1.85,13.26,13.26,0,0,1-4.19-2.53,5.24,5.24,0,0,1-1.49-4.08,6.59,6.59,0,0,1,.4-2.12,5.73,5.73,0,0,1,1.34-2.1A7.32,7.32,0,0,1,269.18,12a11.74,11.74,0,0,1,4.28-.66,10.41,10.41,0,0,1,4.78,1.07,8.14,8.14,0,0,1,3.18,2.8l.41.63a.39.39,0,0,0,.27.17.38.38,0,0,0,.31-.1L288.88,10a.38.38,0,0,0,0-.53L288.54,9a14.4,14.4,0,0,0-7-4.88A28,28,0,0,0,273.46,3a20.42,20.42,0,0,0-8.07,1.45A17.42,17.42,0,0,0,259.85,8a14.17,14.17,0,0,0-4.22,9.83,15.11,15.11,0,0,0,2,8.22,15.39,15.39,0,0,0,4.83,4.83,25,25,0,0,0,6.13,2.74c2.08.62,4,1.27,5.81,1.94a14.82,14.82,0,0,1,4.23,2.35,4.3,4.3,0,0,1,1.45,3.59,5.93,5.93,0,0,1-.77,3.05,7.61,7.61,0,0,1-2.07,2.28,9.52,9.52,0,0,1-2.87,1.42,12,12,0,0,1-8.57-.72,10.12,10.12,0,0,1-4.23-3.66l-.4-.6a.42.42,0,0,0-.27-.17.41.41,0,0,0-.3.09l-6.52,5.61a.38.38,0,0,0-.06.52l.34.47a15.89,15.89,0,0,0,7.25,5.54A25.51,25.51,0,0,0,271,57.1a22.11,22.11,0,0,0,7-1.1,17.42,17.42,0,0,0,5.8-3.2,15.34,15.34,0,0,0,3.94-5.17,15.91,15.91,0,0,0,1.46-6.89,13,13,0,0,0-2-7.63A14.77,14.77,0,0,0,282.39,28.75Z"/><path class="cls-9" d="M338,4.21H298.1a.39.39,0,0,0-.39.39v7.58a.38.38,0,0,0,.39.39h15.59V55.45a.38.38,0,0,0,.38.38h8a.38.38,0,0,0,.38-.38V12.56H338a.38.38,0,0,0,.38-.39V4.6A.39.39,0,0,0,338,4.21Z"/><path class="cls-10" d="M129.47,56.2l5.27-5.26-1.48-1.48a2.83,2.83,0,0,0-4.38,0l-.88.88a2.83,2.83,0,0,0,0,4.38Z"/><path class="cls-11" d="M109,0a29.23,29.23,0,1,0,29.23,29.23A29.23,29.23,0,0,0,109,0Zm0,50.16A20.93,20.93,0,1,1,130,29.23,20.93,20.93,0,0,1,109,50.16Z"/><path class="cls-10" d="M127.65,6.68a46.76,46.76,0,0,1-2.17,9.6A20.92,20.92,0,0,1,96.09,45.66a46.78,46.78,0,0,1-9.6,2.17A29.23,29.23,0,1,0,127.65,6.68Z"/><g class="cls-12"><path class="cls-13" d="M71.87,9.48a2.68,2.68,0,0,0,2.47-2.92,2.52,2.52,0,1,0-5,.05A2.69,2.69,0,0,0,71.87,9.48Zm0-4.74a1.65,1.65,0,0,1,1.45,1.81c0,1.17-.72,1.87-1.41,1.87a1.65,1.65,0,0,1-1.44-1.81C70.42,5.44,71.14,4.74,71.83,4.74Z"/><rect class="cls-13" x="75.87" y="3.81" width="1.06" height="5.53"/><path class="cls-13" d="M81,9.48a2.68,2.68,0,0,0,2.46-2.92,2.52,2.52,0,1,0-5,.05A2.69,2.69,0,0,0,81,9.48Zm0-4.74a1.65,1.65,0,0,1,1.45,1.81c0,1.17-.72,1.87-1.41,1.87a1.65,1.65,0,0,1-1.44-1.81C79.52,5.44,80.24,4.74,80.93,4.74Z"/><path class="cls-13" d="M87.34,9.48a2.68,2.68,0,0,0,2.47-2.92,2.52,2.52,0,1,0-5,.05A2.69,2.69,0,0,0,87.34,9.48Zm0-4.74a1.66,1.66,0,0,1,1.45,1.81c0,1.17-.72,1.87-1.41,1.87a1.65,1.65,0,0,1-1.44-1.81C85.89,5.44,86.61,4.74,87.3,4.74Z"/><path class="cls-13" d="M93.71,9.48a2.68,2.68,0,0,0,2.47-2.92,2.52,2.52,0,1,0-5,.05A2.69,2.69,0,0,0,93.71,9.48Zm0-4.74a1.66,1.66,0,0,1,1.45,1.81c0,1.17-.72,1.87-1.41,1.87a1.65,1.65,0,0,1-1.44-1.81C92.26,5.44,93,4.74,93.66,4.74Z"/><rect class="cls-13" x="97.71" y="3.81" width="1.06" height="5.53"/><path class="cls-13" d="M102.81,9.48a2.69,2.69,0,0,0,2.47-2.92,2.52,2.52,0,1,0-5,.05A2.69,2.69,0,0,0,102.81,9.48Zm0-4.74a1.65,1.65,0,0,1,1.45,1.81c0,1.17-.72,1.87-1.41,1.87a1.65,1.65,0,0,1-1.44-1.81C101.36,5.44,102.07,4.74,102.76,4.74Z"/><rect class="cls-13" x="106.81" y="3.81" width="1.06" height="5.53"/><path class="cls-13" d="M111.91,9.48a2.68,2.68,0,0,0,2.47-2.92,2.52,2.52,0,1,0-5,.05A2.69,2.69,0,0,0,111.91,9.48Zm0-4.74a1.66,1.66,0,0,1,1.45,1.81c0,1.17-.72,1.87-1.41,1.87a1.65,1.65,0,0,1-1.44-1.81C110.46,5.44,111.18,4.74,111.87,4.74Z"/><path class="cls-13" d="M118.28,9.48a2.68,2.68,0,0,0,2.46-2.92,2.52,2.52,0,1,0-5,.05A2.69,2.69,0,0,0,118.28,9.48Zm0-4.74a1.65,1.65,0,0,1,1.45,1.81c0,1.17-.72,1.87-1.42,1.87a1.65,1.65,0,0,1-1.44-1.81C116.83,5.44,117.54,4.74,118.23,4.74Z"/><rect class="cls-13" x="122.27" y="3.81" width="1.06" height="5.53"/><path class="cls-13" d="M127.38,9.48a2.68,2.68,0,0,0,2.46-2.92,2.52,2.52,0,1,0-5,.05A2.69,2.69,0,0,0,127.38,9.48Zm0-4.74a1.66,1.66,0,0,1,1.45,1.81c0,1.17-.72,1.87-1.41,1.87a1.65,1.65,0,0,1-1.44-1.81C125.93,5.44,126.65,4.74,127.33,4.74Z"/><path class="cls-13" d="M133.75,9.48a2.68,2.68,0,0,0,2.47-2.92,2.52,2.52,0,1,0-5,.05A2.69,2.69,0,0,0,133.75,9.48Zm0-4.74a1.65,1.65,0,0,1,1.45,1.81c0,1.17-.72,1.87-1.41,1.87a1.65,1.65,0,0,1-1.44-1.81C132.29,5.44,133,4.74,133.7,4.74Z"/><path class="cls-13" d="M140.11,9.48a2.69,2.69,0,0,0,2.47-2.92,2.52,2.52,0,1,0-5,.05A2.69,2.69,0,0,0,140.11,9.48Zm0-4.74a1.65,1.65,0,0,1,1.45,1.81c0,1.17-.72,1.87-1.41,1.87a1.65,1.65,0,0,1-1.44-1.81C138.66,5.44,139.38,4.74,140.07,4.74Z"/><path class="cls-13" d="M146.48,9.48a2.69,2.69,0,0,0,2.47-2.92,2.52,2.52,0,1,0-5,.05A2.69,2.69,0,0,0,146.48,9.48Zm0-4.74a1.65,1.65,0,0,1,1.45,1.81c0,1.17-.72,1.87-1.41,1.87A1.65,1.65,0,0,1,145,6.61C145,5.44,145.74,4.74,146.43,4.74Z"/><path class="cls-13" d="M71.87,17.68a2.69,2.69,0,0,0,2.47-2.93,2.52,2.52,0,1,0-5,.06A2.7,2.7,0,0,0,71.87,17.68Zm0-4.74a1.66,1.66,0,0,1,1.45,1.81c0,1.17-.72,1.87-1.41,1.87a1.65,1.65,0,0,1-1.44-1.81C70.42,13.63,71.14,12.94,71.83,12.94Z"/><rect class="cls-13" x="75.87" y="12.01" width="1.06" height="5.54"/><path class="cls-13" d="M81,17.68a2.69,2.69,0,0,0,2.46-2.93,2.52,2.52,0,1,0-5,.06A2.7,2.7,0,0,0,81,17.68Zm0-4.74a1.66,1.66,0,0,1,1.45,1.81c0,1.17-.72,1.87-1.41,1.87a1.65,1.65,0,0,1-1.44-1.81C79.52,13.63,80.24,12.94,80.93,12.94Z"/><path class="cls-13" d="M87.34,17.68a2.69,2.69,0,0,0,2.47-2.93,2.52,2.52,0,1,0-5,.06A2.7,2.7,0,0,0,87.34,17.68Zm0-4.74a1.66,1.66,0,0,1,1.45,1.81c0,1.17-.72,1.87-1.41,1.87a1.65,1.65,0,0,1-1.44-1.81C85.89,13.63,86.61,12.94,87.3,12.94Z"/><rect class="cls-13" x="91.34" y="12.01" width="1.06" height="5.54"/><path class="cls-13" d="M96.4,11.87a2.69,2.69,0,0,0-2.46,2.93,2.52,2.52,0,1,0,5-.06A2.69,2.69,0,0,0,96.4,11.87Zm0,1.06a1.66,1.66,0,0,1,1.45,1.81c0,1.17-.72,1.87-1.41,1.87A1.65,1.65,0,0,1,95,14.8C95,13.63,95.71,12.94,96.4,12.94Z"/><path class="cls-13" d="M102.81,17.68a2.69,2.69,0,0,0,2.47-2.93,2.52,2.52,0,1,0-5,.06A2.69,2.69,0,0,0,102.81,17.68Zm0-4.74a1.66,1.66,0,0,1,1.45,1.81c0,1.17-.72,1.87-1.41,1.87a1.65,1.65,0,0,1-1.44-1.81C101.36,13.63,102.07,12.94,102.76,12.94Z"/><rect class="cls-13" x="106.81" y="12.01" width="1.06" height="5.54"/><path class="cls-13" d="M114.38,14.75a2.52,2.52,0,1,0-5,.06,2.52,2.52,0,1,0,5-.06Zm-2.51-1.81a1.66,1.66,0,0,1,1.45,1.81c0,1.17-.72,1.87-1.41,1.87a1.65,1.65,0,0,1-1.44-1.81C110.46,13.63,111.18,12.94,111.87,12.94Z"/><path class="cls-13" d="M118.28,17.68a2.69,2.69,0,0,0,2.46-2.93,2.52,2.52,0,1,0-5,.06A2.7,2.7,0,0,0,118.28,17.68Zm0-4.74a1.66,1.66,0,0,1,1.45,1.81c0,1.17-.72,1.87-1.42,1.87a1.65,1.65,0,0,1-1.44-1.81C116.83,13.63,117.54,12.94,118.23,12.94Z"/><rect class="cls-13" x="122.27" y="12.01" width="1.06" height="5.54"/><path class="cls-13" d="M129.84,14.75a2.52,2.52,0,1,0-5,.06,2.52,2.52,0,1,0,5-.06Zm-2.51-1.81a1.66,1.66,0,0,1,1.45,1.81c0,1.17-.72,1.87-1.41,1.87a1.65,1.65,0,0,1-1.44-1.81C125.93,13.63,126.65,12.94,127.33,12.94Z"/><path class="cls-13" d="M133.75,17.68a2.69,2.69,0,0,0,2.47-2.93,2.52,2.52,0,1,0-5,.06A2.7,2.7,0,0,0,133.75,17.68Zm0-4.74a1.66,1.66,0,0,1,1.45,1.81c0,1.17-.72,1.87-1.41,1.87a1.65,1.65,0,0,1-1.44-1.81C132.29,13.63,133,12.94,133.7,12.94Z"/><rect class="cls-13" x="137.74" y="12.01" width="1.06" height="5.54"/><path class="cls-13" d="M140.34,14.8a2.52,2.52,0,1,0,5-.06,2.52,2.52,0,1,0-5,.06Zm2.47-1.87a1.66,1.66,0,0,1,1.45,1.81c0,1.17-.71,1.87-1.41,1.87a1.65,1.65,0,0,1-1.44-1.81C141.4,13.63,142.11,12.94,142.8,12.94Z"/><path class="cls-13" d="M146.7,14.8a2.52,2.52,0,1,0,5-.06,2.52,2.52,0,1,0-5,.06Zm2.46-1.87a1.65,1.65,0,0,1,1.45,1.81c0,1.17-.72,1.87-1.41,1.87a1.65,1.65,0,0,1-1.44-1.81C147.76,13.63,148.47,12.94,149.16,12.94Z"/><path class="cls-13" d="M71.87,25.87a2.69,2.69,0,0,0,2.47-2.93,2.52,2.52,0,1,0-5,.05A2.69,2.69,0,0,0,71.87,25.87Zm0-4.74a1.65,1.65,0,0,1,1.45,1.81c0,1.17-.72,1.87-1.41,1.87A1.65,1.65,0,0,1,70.42,23C70.42,21.83,71.14,21.13,71.83,21.13Z"/><path class="cls-13" d="M78.24,25.87a2.69,2.69,0,0,0,2.47-2.93,2.52,2.52,0,1,0-5,.05A2.69,2.69,0,0,0,78.24,25.87Zm0-4.74a1.65,1.65,0,0,1,1.45,1.81c0,1.17-.72,1.87-1.41,1.87A1.65,1.65,0,0,1,76.79,23C76.79,21.83,77.51,21.13,78.2,21.13Z"/><rect class="cls-13" x="82.24" y="20.2" width="1.06" height="5.53"/><path class="cls-13" d="M87.34,25.87a2.69,2.69,0,0,0,2.47-2.93,2.52,2.52,0,1,0-5,.05A2.69,2.69,0,0,0,87.34,25.87Zm0-4.74a1.66,1.66,0,0,1,1.45,1.81c0,1.17-.72,1.87-1.41,1.87A1.65,1.65,0,0,1,85.89,23C85.89,21.83,86.61,21.13,87.3,21.13Z"/><rect class="cls-13" x="91.34" y="20.2" width="1.06" height="5.53"/><path class="cls-13" d="M96.4,20.07A2.69,2.69,0,0,0,93.93,23a2.52,2.52,0,1,0,5-.05A2.69,2.69,0,0,0,96.4,20.07Zm0,1.06a1.65,1.65,0,0,1,1.45,1.81c0,1.17-.72,1.87-1.41,1.87A1.65,1.65,0,0,1,95,23C95,21.83,95.71,21.13,96.4,21.13Z"/><rect class="cls-13" x="100.44" y="20.2" width="1.06" height="5.53"/><rect class="cls-13" x="103.18" y="20.2" width="1.06" height="5.53"/><path class="cls-13" d="M108.28,25.87a2.68,2.68,0,0,0,2.46-2.93,2.52,2.52,0,1,0-5,.05A2.69,2.69,0,0,0,108.28,25.87Zm0-4.74a1.66,1.66,0,0,1,1.45,1.81c0,1.17-.72,1.87-1.42,1.87A1.65,1.65,0,0,1,106.83,23C106.83,21.83,107.54,21.13,108.23,21.13Z"/><rect class="cls-13" x="112.27" y="20.2" width="1.06" height="5.53"/><path class="cls-13" d="M117.39,25.87a2.69,2.69,0,0,0,2.46-2.93,2.52,2.52,0,1,0-5,.05A2.69,2.69,0,0,0,117.39,25.87Zm-.05-4.74a1.65,1.65,0,0,1,1.45,1.81c0,1.17-.72,1.87-1.41,1.87A1.65,1.65,0,0,1,115.93,23C115.93,21.83,116.64,21.13,117.33,21.13Z"/><path class="cls-13" d="M123.75,25.87a2.68,2.68,0,0,0,2.46-2.93,2.52,2.52,0,1,0-5,.05A2.69,2.69,0,0,0,123.75,25.87Zm0-4.74a1.66,1.66,0,0,1,1.45,1.81c0,1.17-.72,1.87-1.41,1.87A1.65,1.65,0,0,1,122.3,23C122.3,21.83,123,21.13,123.7,21.13Z"/><rect class="cls-13" x="127.74" y="20.2" width="1.06" height="5.53"/><path class="cls-13" d="M132.85,25.87a2.69,2.69,0,0,0,2.46-2.93,2.52,2.52,0,1,0-5,.05A2.69,2.69,0,0,0,132.85,25.87Zm0-4.74a1.65,1.65,0,0,1,1.45,1.81c0,1.17-.72,1.87-1.41,1.87A1.65,1.65,0,0,1,131.4,23C131.4,21.83,132.11,21.13,132.8,21.13Z"/><path class="cls-13" d="M139.22,25.87a2.69,2.69,0,0,0,2.46-2.93,2.52,2.52,0,1,0-5,.05A2.69,2.69,0,0,0,139.22,25.87Zm0-4.74a1.66,1.66,0,0,1,1.45,1.81c0,1.17-.72,1.87-1.41,1.87A1.65,1.65,0,0,1,137.77,23C137.77,21.83,138.48,21.13,139.17,21.13Z"/><rect class="cls-13" x="143.21" y="20.2" width="1.06" height="5.53"/><path class="cls-13" d="M150.78,22.94a2.52,2.52,0,1,0-5,.05,2.52,2.52,0,1,0,5-.05Zm-2.51-1.81a1.65,1.65,0,0,1,1.45,1.81c0,1.17-.72,1.87-1.41,1.87A1.65,1.65,0,0,1,146.87,23C146.87,21.83,147.58,21.13,148.27,21.13Z"/><rect class="cls-13" x="69.51" y="28.4" width="1.05" height="5.54"/><path class="cls-13" d="M77.07,31.14a2.52,2.52,0,1,0-5,.05,2.52,2.52,0,1,0,5-.05Zm-2.51-1.81A1.65,1.65,0,0,1,76,31.14C76,32.31,75.3,33,74.6,33a1.65,1.65,0,0,1-1.44-1.81C73.16,30,73.87,29.33,74.56,29.33Z"/><path class="cls-13" d="M83.44,31.14a2.52,2.52,0,1,0-5,.05,2.52,2.52,0,1,0,5-.05Zm-2.51-1.81a1.65,1.65,0,0,1,1.45,1.81c0,1.17-.72,1.87-1.41,1.87a1.65,1.65,0,0,1-1.44-1.81C79.52,30,80.24,29.33,80.93,29.33Z"/><rect class="cls-13" x="84.97" y="28.4" width="1.06" height="5.54"/><path class="cls-13" d="M92.54,31.14a2.52,2.52,0,1,0-5,.05,2.52,2.52,0,1,0,5-.05ZM90,29.33a1.65,1.65,0,0,1,1.45,1.81c0,1.17-.72,1.87-1.41,1.87a1.65,1.65,0,0,1-1.44-1.81C88.63,30,89.34,29.33,90,29.33Z"/><path class="cls-13" d="M96.4,28.27a2.69,2.69,0,0,0-2.46,2.93,2.52,2.52,0,1,0,5-.05A2.69,2.69,0,0,0,96.4,28.27Zm0,1.06a1.65,1.65,0,0,1,1.45,1.81c0,1.17-.72,1.87-1.41,1.87A1.65,1.65,0,0,1,95,31.2C95,30,95.71,29.33,96.4,29.33Z"/><rect class="cls-13" x="100.44" y="28.4" width="1.06" height="5.54"/><path class="cls-13" d="M108,31.14a2.52,2.52,0,1,0-5,.05,2.52,2.52,0,1,0,5-.05Zm-2.51-1.81A1.65,1.65,0,0,1,107,31.14c0,1.17-.72,1.87-1.41,1.87a1.65,1.65,0,0,1-1.44-1.81C104.1,30,104.81,29.33,105.5,29.33Z"/><rect class="cls-13" x="109.54" y="28.4" width="1.06" height="5.54"/><path class="cls-13" d="M112.13,31.2a2.52,2.52,0,1,0,5-.05,2.52,2.52,0,1,0-5,.05Zm2.47-1.87a1.65,1.65,0,0,1,1.45,1.81c0,1.17-.72,1.87-1.41,1.87a1.65,1.65,0,0,1-1.44-1.81C113.2,30,113.91,29.33,114.6,29.33Z"/><rect class="cls-13" x="118.64" y="28.4" width="1.06" height="5.54"/><path class="cls-13" d="M123.75,34.07a2.68,2.68,0,0,0,2.46-2.93,2.52,2.52,0,1,0-5,.05A2.69,2.69,0,0,0,123.75,34.07Zm0-4.74a1.65,1.65,0,0,1,1.45,1.81c0,1.17-.72,1.87-1.41,1.87a1.65,1.65,0,0,1-1.44-1.81C122.3,30,123,29.33,123.7,29.33Z"/><rect class="cls-13" x="127.74" y="28.4" width="1.06" height="5.54"/><rect class="cls-13" x="130.48" y="28.4" width="1.06" height="5.54"/><path class="cls-13" d="M135.54,28.27a2.69,2.69,0,0,0-2.47,2.93,2.52,2.52,0,1,0,5-.05A2.7,2.7,0,0,0,135.54,28.27Zm0,1.06A1.65,1.65,0,0,1,137,31.14c0,1.17-.72,1.87-1.41,1.87a1.65,1.65,0,0,1-1.44-1.81C134.14,30,134.85,29.33,135.54,29.33Z"/><rect class="cls-13" x="139.58" y="28.4" width="1.06" height="5.54"/><path class="cls-13" d="M142.17,31.2a2.52,2.52,0,1,0,5-.05,2.52,2.52,0,1,0-5,.05Zm2.47-1.87a1.65,1.65,0,0,1,1.45,1.81c0,1.17-.72,1.87-1.41,1.87a1.65,1.65,0,0,1-1.44-1.81C143.23,30,143.95,29.33,144.64,29.33Z"/><rect class="cls-13" x="148.68" y="28.4" width="1.06" height="5.54"/><path class="cls-13" d="M71.83,36.47a2.69,2.69,0,0,0-2.47,2.92,2.52,2.52,0,1,0,5-.05A2.69,2.69,0,0,0,71.83,36.47Zm0,1.06a1.66,1.66,0,0,1,1.45,1.81c0,1.17-.72,1.87-1.41,1.87a1.65,1.65,0,0,1-1.44-1.81C70.42,38.23,71.14,37.53,71.83,37.53Z"/><path class="cls-13" d="M78.2,36.47a2.68,2.68,0,0,0-2.47,2.92,2.52,2.52,0,1,0,5-.05A2.69,2.69,0,0,0,78.2,36.47Zm0,1.06a1.66,1.66,0,0,1,1.45,1.81c0,1.17-.72,1.87-1.41,1.87a1.65,1.65,0,0,1-1.44-1.81C76.79,38.23,77.51,37.53,78.2,37.53Z"/><path class="cls-13" d="M87.07,39.34a2.52,2.52,0,1,0-5,.05,2.52,2.52,0,1,0,5-.05Zm-2.51-1.81A1.66,1.66,0,0,1,86,39.34c0,1.17-.72,1.87-1.42,1.87a1.65,1.65,0,0,1-1.44-1.81C83.16,38.23,83.87,37.53,84.56,37.53Z"/><rect class="cls-13" x="88.6" y="36.6" width="1.06" height="5.54"/><path class="cls-13" d="M96.17,39.34a2.52,2.52,0,1,0-5,.05,2.52,2.52,0,1,0,5-.05Zm-2.51-1.81a1.66,1.66,0,0,1,1.45,1.81c0,1.17-.72,1.87-1.41,1.87a1.65,1.65,0,0,1-1.44-1.81C92.26,38.23,93,37.53,93.66,37.53Z"/><rect class="cls-13" x="97.71" y="36.6" width="1.06" height="5.54"/><path class="cls-13" d="M102.76,36.47a2.68,2.68,0,0,0-2.47,2.92,2.52,2.52,0,1,0,5-.05A2.69,2.69,0,0,0,102.76,36.47Zm0,1.06a1.66,1.66,0,0,1,1.45,1.81c0,1.17-.72,1.87-1.41,1.87a1.65,1.65,0,0,1-1.44-1.81C101.36,38.23,102.07,37.53,102.76,37.53Z"/><path class="cls-13" d="M109.13,36.47a2.69,2.69,0,0,0-2.47,2.92,2.52,2.52,0,1,0,5-.05A2.69,2.69,0,0,0,109.13,36.47Zm0,1.06a1.66,1.66,0,0,1,1.45,1.81c0,1.17-.72,1.87-1.41,1.87a1.65,1.65,0,0,1-1.44-1.81C107.73,38.23,108.44,37.53,109.13,37.53Z"/><rect class="cls-13" x="113.17" y="36.6" width="1.06" height="5.54"/><path class="cls-13" d="M120.74,39.34a2.52,2.52,0,1,0-5,.05,2.52,2.52,0,1,0,5-.05Zm-2.51-1.81a1.66,1.66,0,0,1,1.45,1.81c0,1.17-.72,1.87-1.42,1.87a1.65,1.65,0,0,1-1.44-1.81C116.83,38.23,117.54,37.53,118.23,37.53Z"/><path class="cls-13" d="M124.6,36.47a2.69,2.69,0,0,0-2.47,2.92,2.52,2.52,0,1,0,5-.05A2.69,2.69,0,0,0,124.6,36.47Zm0,1.06A1.66,1.66,0,0,1,126,39.34c0,1.17-.72,1.87-1.41,1.87a1.65,1.65,0,0,1-1.44-1.81C123.2,38.23,123.91,37.53,124.6,37.53Z"/><path class="cls-13" d="M131,36.47a2.69,2.69,0,0,0-2.47,2.92,2.52,2.52,0,1,0,5-.05A2.69,2.69,0,0,0,131,36.47Zm0,1.06a1.66,1.66,0,0,1,1.45,1.81c0,1.17-.72,1.87-1.41,1.87a1.65,1.65,0,0,1-1.44-1.81C129.56,38.23,130.27,37.53,131,37.53Z"/><path class="cls-13" d="M137.33,36.47a2.68,2.68,0,0,0-2.46,2.92,2.52,2.52,0,1,0,5-.05A2.69,2.69,0,0,0,137.33,36.47Zm0,1.06a1.66,1.66,0,0,1,1.45,1.81c0,1.17-.72,1.87-1.41,1.87a1.65,1.65,0,0,1-1.44-1.81C135.93,38.23,136.64,37.53,137.33,37.53Z"/><rect class="cls-13" x="141.37" y="36.6" width="1.06" height="5.54"/><path class="cls-13" d="M146.43,36.47A2.69,2.69,0,0,0,144,39.39a2.52,2.52,0,1,0,5-.05A2.69,2.69,0,0,0,146.43,36.47Zm0,1.06a1.66,1.66,0,0,1,1.45,1.81c0,1.17-.72,1.87-1.41,1.87A1.65,1.65,0,0,1,145,39.39C145,38.23,145.74,37.53,146.43,37.53Z"/><rect class="cls-13" x="150.47" y="36.6" width="1.06" height="5.54"/><path class="cls-13" d="M71.83,44.66a2.93,2.93,0,1,0,2.51,2.87A2.69,2.69,0,0,0,71.83,44.66Zm0,1.06a1.65,1.65,0,0,1,1.45,1.81c0,1.17-.72,1.86-1.41,1.86a1.65,1.65,0,0,1-1.44-1.81C70.42,46.42,71.14,45.72,71.83,45.72Z"/><path class="cls-13" d="M78.2,44.66a2.93,2.93,0,1,0,2.51,2.87A2.69,2.69,0,0,0,78.2,44.66Zm0,1.06a1.65,1.65,0,0,1,1.45,1.81c0,1.17-.72,1.86-1.41,1.86a1.65,1.65,0,0,1-1.44-1.81C76.79,46.42,77.51,45.72,78.2,45.72Z"/><rect class="cls-13" x="82.24" y="44.8" width="1.06" height="5.53"/><path class="cls-13" d="M87.3,44.66a2.93,2.93,0,1,0,2.51,2.87A2.69,2.69,0,0,0,87.3,44.66Zm0,1.06a1.66,1.66,0,0,1,1.45,1.81c0,1.17-.72,1.86-1.41,1.86a1.65,1.65,0,0,1-1.44-1.81C85.89,46.42,86.61,45.72,87.3,45.72Z"/><rect class="cls-13" x="91.34" y="44.8" width="1.06" height="5.53"/><path class="cls-13" d="M96.4,44.66a2.93,2.93,0,1,0,2.51,2.87A2.69,2.69,0,0,0,96.4,44.66Zm0,1.06a1.65,1.65,0,0,1,1.45,1.81c0,1.17-.72,1.86-1.41,1.86A1.65,1.65,0,0,1,95,47.59C95,46.42,95.71,45.72,96.4,45.72Z"/><rect class="cls-13" x="100.44" y="44.8" width="1.06" height="5.53"/><rect class="cls-13" x="103.18" y="44.8" width="1.06" height="5.53"/><path class="cls-13" d="M108.23,44.66a2.93,2.93,0,1,0,2.51,2.87A2.69,2.69,0,0,0,108.23,44.66Zm0,1.06a1.66,1.66,0,0,1,1.45,1.81c0,1.17-.72,1.86-1.42,1.86a1.64,1.64,0,0,1-1.44-1.81C106.83,46.42,107.54,45.72,108.23,45.72Z"/><path class="cls-13" d="M114.6,44.66a2.93,2.93,0,1,0,2.51,2.87A2.69,2.69,0,0,0,114.6,44.66Zm0,1.06a1.65,1.65,0,0,1,1.45,1.81c0,1.17-.72,1.86-1.41,1.86a1.65,1.65,0,0,1-1.44-1.81C113.2,46.42,113.91,45.72,114.6,45.72Z"/><path class="cls-13" d="M121,44.66a2.93,2.93,0,1,0,2.51,2.87A2.68,2.68,0,0,0,121,44.66Zm0,1.06a1.66,1.66,0,0,1,1.45,1.81c0,1.17-.72,1.86-1.41,1.86a1.65,1.65,0,0,1-1.44-1.81C119.56,46.42,120.28,45.72,121,45.72Z"/><rect class="cls-13" x="125.01" y="44.8" width="1.06" height="5.53"/><path class="cls-13" d="M130.07,44.66a2.93,2.93,0,1,0,2.51,2.87A2.69,2.69,0,0,0,130.07,44.66Zm0,1.06a1.66,1.66,0,0,1,1.45,1.81c0,1.17-.72,1.86-1.42,1.86a1.64,1.64,0,0,1-1.44-1.81C128.67,46.42,129.38,45.72,130.07,45.72Z"/><path class="cls-13" d="M136.43,44.66a2.93,2.93,0,1,0,2.51,2.87A2.69,2.69,0,0,0,136.43,44.66Zm0,1.06a1.66,1.66,0,0,1,1.45,1.81c0,1.17-.72,1.86-1.41,1.86A1.65,1.65,0,0,1,135,47.59C135,46.42,135.75,45.72,136.43,45.72Z"/><rect class="cls-13" x="140.48" y="44.8" width="1.06" height="5.53"/><path class="cls-13" d="M145.54,44.66a2.93,2.93,0,1,0,2.51,2.87A2.69,2.69,0,0,0,145.54,44.66Zm0,1.06A1.65,1.65,0,0,1,147,47.53c0,1.17-.71,1.86-1.41,1.86a1.65,1.65,0,0,1-1.44-1.81C144.13,46.42,144.85,45.72,145.54,45.72Z"/><path class="cls-13" d="M151.9,44.66a2.93,2.93,0,1,0,2.51,2.87A2.69,2.69,0,0,0,151.9,44.66Zm0,1.06a1.66,1.66,0,0,1,1.45,1.81c0,1.17-.72,1.86-1.41,1.86a1.65,1.65,0,0,1-1.44-1.81C150.5,46.42,151.21,45.72,151.9,45.72Z"/></g></g></g></svg>